<svg width="46" height="36" viewBox="0 0 46 36" fill="none" xmlns="http://www.w3.org/2000/svg">
<path d="M10.5283 26.7098C10.3681 27.5226 10.8971 28.3114 11.7098 28.4717C12.5226 28.6319 13.3114 28.1029 13.4717 27.2902L10.5283 26.7098ZM20.2355 20.4814C21.0537 20.3513 21.6115 19.5826 21.4814 18.7645C21.3513 17.9463 20.5826 17.3885 19.7645 17.5186L20.2355 20.4814ZM13.4717 27.2902C13.9855 24.6841 14.6084 23.2595 15.5007 22.3582C16.3773 21.4728 17.7271 20.8802 20.2355 20.4814L19.7645 17.5186C17.0427 17.9513 14.9205 18.6802 13.3688 20.2476C11.8327 21.7992 11.0707 23.9589 10.5283 26.7098L13.4717 27.2902Z" fill="#93B3FD"/>
<path d="M2 32.5C1.17157 32.5 0.5 33.1716 0.5 34C0.5 34.8284 1.17157 35.5 2 35.5V32.5ZM44 35.5C44.8284 35.5 45.5 34.8284 45.5 34C45.5 33.1716 44.8284 32.5 44 32.5V35.5ZM2 35.5H44V32.5H2V35.5Z" fill="#93B3FD"/>
<path d="M5 33.5C5.32633 8.7226 38.5277 4.9192 40.5 33.5" stroke="#93B3FD" stroke-width="3"/>
<path d="M21 13C21.046 9.28982 25.7222 8.7203 26 13" stroke="#93B3FD" stroke-width="3"/>
<path d="M28.5103 18.7737C28.3853 20.1487 29.3986 21.3647 30.7737 21.4897C32.1487 21.6147 33.3647 20.6014 33.4897 19.2263L28.5103 18.7737ZM31.3346 15.3189L28.8449 15.0926L28.8449 15.0926L31.3346 15.3189ZM36.5858 4.41421L34.818 2.64645L34.818 2.64645L36.5858 4.41421ZM39.7678 4.76777C40.7441 3.79146 40.7441 2.20854 39.7678 1.23223C38.7915 0.255922 37.2085 0.255922 36.2322 1.23223L39.7678 4.76777ZM33.4897 19.2263L33.8244 15.5453L28.8449 15.0926L28.5103 18.7737L33.4897 19.2263ZM33.3264 16H40.5V11H33.3264V16ZM45 11.5V11H40V11.5H45ZM40.5 6.5H31V11.5H40.5V6.5ZM31 7.5H35.1716V2.5H31V7.5ZM38.3536 6.18198L39.7678 4.76777L36.2322 1.23223L34.818 2.64645L38.3536 6.18198ZM35.1716 7.5C36.365 7.5 37.5096 7.02589 38.3536 6.18198L34.818 2.64645C34.9118 2.55268 35.039 2.5 35.1716 2.5V7.5ZM31.5 7C31.5 7.27614 31.2761 7.5 31 7.5V2.5C28.5147 2.5 26.5 4.51472 26.5 7H31.5ZM31 6.5C31.2761 6.5 31.5 6.72386 31.5 7H26.5C26.5 9.48528 28.5147 11.5 31 11.5V6.5ZM45 11C45 8.51472 42.9853 6.5 40.5 6.5V11.5C40.2239 11.5 40 11.2761 40 11H45ZM40.5 16C42.9853 16 45 13.9853 45 11.5H40C40 11.2239 40.2239 11 40.5 11V16ZM33.8244 15.5453C33.801 15.8028 33.585 16 33.3264 16V11C30.999 11 29.0556 12.7747 28.8449 15.0926L33.8244 15.5453Z" fill="white"/>
<path d="M30 16.5C30 17.3284 30.6716 18 31.5 18C32.3284 18 33 17.3284 33 16.5H30ZM36.5858 4.41421L35.5251 3.35355L35.5251 3.35355L36.5858 4.41421ZM39.0607 4.06066C39.6464 3.47487 39.6464 2.52513 39.0607 1.93934C38.4749 1.35355 37.5251 1.35355 36.9393 1.93934L39.0607 4.06066ZM33 16.5V15.5H30V16.5H33ZM33.5 15H40.5V12H33.5V15ZM44 11.5V11H41V11.5H44ZM40.5 7.5H31V10.5H40.5V7.5ZM31 6.5H35.1716V3.5H31V6.5ZM37.6464 5.47487L39.0607 4.06066L36.9393 1.93934L35.5251 3.35355L37.6464 5.47487ZM35.1716 6.5C36.0998 6.5 36.9901 6.13125 37.6464 5.47487L35.5251 3.35355C35.4314 3.44732 35.3042 3.5 35.1716 3.5V6.5ZM30.5 7C30.5 6.72386 30.7239 6.5 31 6.5V3.5C29.067 3.5 27.5 5.067 27.5 7H30.5ZM31 7.5C30.7239 7.5 30.5 7.27614 30.5 7H27.5C27.5 8.933 29.067 10.5 31 10.5V7.5ZM44 11C44 9.067 42.433 7.5 40.5 7.5V10.5C40.7761 10.5 41 10.7239 41 11H44ZM40.5 15C42.433 15 44 13.433 44 11.5H41C41 11.7761 40.7761 12 40.5 12V15ZM33 15.5C33 15.2239 33.2239 15 33.5 15V12C31.567 12 30 13.567 30 15.5H33Z" fill="#93B3FD"/>
</svg>
