<svg width="37" height="36" viewBox="0 0 37 36" fill="none" xmlns="http://www.w3.org/2000/svg">
<path d="M1.63046 30.9085C0.654147 31.8848 0.475855 33.6127 1.23223 34.7678C1.98861 35.9229 3.39323 36.0678 4.36954 35.0915L1.63046 30.9085ZM34.3695 5.09152C35.3458 4.11521 35.5241 2.38736 34.7677 1.23226C34.0114 0.0771608 32.6068 -0.0677775 31.6304 0.908533L34.3695 5.09152ZM4.36954 35.0915L34.3695 5.09152L31.6304 0.908533L1.63046 30.9085L4.36954 35.0915Z" fill="#B41C1C"/>
<path d="M5.19083 0.908505C4.21452 -0.0678059 2.8099 0.0771324 2.05352 1.23223C1.29714 2.38733 1.47544 4.11518 2.45175 5.0915L5.19083 0.908505ZM32.4517 35.0915C33.428 36.0678 34.8327 35.9228 35.589 34.7677C36.3454 33.6126 36.1671 31.8848 35.1908 30.9085L32.4517 35.0915ZM2.45175 5.0915L32.4517 35.0915L35.1908 30.9085L5.19083 0.908505L2.45175 5.0915Z" fill="#B41C1C"/>
</svg>
