<svg width="35" height="29" viewBox="0 0 35 29" fill="none" xmlns="http://www.w3.org/2000/svg">
<rect x="1.5" y="1.5" width="32" height="26" rx="3.5" stroke="#93B3FD" stroke-width="3"/>
<path d="M0.5 8H33" stroke="#93B3FD" stroke-width="3"/>
<path d="M13.5 13C13.5 12.1716 12.8284 11.5 12 11.5C11.1716 11.5 10.5 12.1716 10.5 13H13.5ZM24 13C24 12.1716 23.3284 11.5 22.5 11.5C21.6716 11.5 21 12.1716 21 13H24ZM10.5 13V16.5H13.5V13H10.5ZM14 20H20.5V17H14V20ZM24 16.5V13H21V16.5H24ZM20.5 20C22.433 20 24 18.433 24 16.5H21C21 16.7761 20.7761 17 20.5 17V20ZM10.5 16.5C10.5 18.433 12.067 20 14 20V17C13.7239 17 13.5 16.7761 13.5 16.5H10.5Z" fill="#93B3FD"/>
</svg>
