<svg width="72" height="84" viewBox="0 0 72 84" fill="none" xmlns="http://www.w3.org/2000/svg">
<path d="M24 47C24 45.8954 23.1046 45 22 45C20.8954 45 20 45.8954 20 47H24ZM20 64C20 65.1046 20.8954 66 22 66C23.1046 66 24 65.1046 24 64H20ZM20 47V64H24V47H20Z" fill="#93B3FD"/>
<path d="M24 70C24 68.8954 23.1046 68 22 68C20.8954 68 20 68.8954 20 70H24ZM20 73C20 74.1046 20.8954 75 22 75C23.1046 75 24 74.1046 24 73H20ZM20 70V73H24V70H20Z" fill="#93B3FD"/>
<path d="M29 70C29 68.8954 28.1046 68 27 68C25.8954 68 25 68.8954 25 70H29ZM25 73C25 74.1046 25.8954 75 27 75C28.1046 75 29 74.1046 29 73H25ZM25 70V73H29V70H25Z" fill="#93B3FD"/>
<path d="M34 70C34 68.8954 33.1046 68 32 68C30.8954 68 30 68.8954 30 70H34ZM30 73C30 74.1046 30.8954 75 32 75C33.1046 75 34 74.1046 34 73H30ZM30 70V73H34V70H30Z" fill="#93B3FD"/>
<path d="M48 70C48 68.8954 47.1046 68 46 68C44.8954 68 44 68.8954 44 70H48ZM44 73C44 74.1046 44.8954 75 46 75C47.1046 75 48 74.1046 48 73H44ZM44 70V73H48V70H44Z" fill="#93B3FD"/>
<path d="M56 70C56 68.8954 55.1046 68 54 68C52.8954 68 52 68.8954 52 70H56ZM52 73C52 74.1046 52.8954 75 54 75C55.1046 75 56 74.1046 56 73H52ZM52 70V73H56V70H52Z" fill="#93B3FD"/>
<path d="M29 47C29 45.8954 28.1046 45 27 45C25.8954 45 25 45.8954 25 47H29ZM25 64C25 65.1046 25.8954 66 27 66C28.1046 66 29 65.1046 29 64H25ZM25 47V64H29V47H25Z" fill="#93B3FD"/>
<path d="M34 47C34 45.8954 33.1046 45 32 45C30.8954 45 30 45.8954 30 47H34ZM30 64C30 65.1046 30.8954 66 32 66C33.1046 66 34 65.1046 34 64H30ZM30 47V64H34V47H30Z" fill="#93B3FD"/>
<path d="M48 47C48 45.8954 47.1046 45 46 45C44.8954 45 44 45.8954 44 47H48ZM44 64C44 65.1046 44.8954 66 46 66C47.1046 66 48 65.1046 48 64H44ZM44 47V64H48V47H44Z" fill="#93B3FD"/>
<path d="M56 47C56 45.8954 55.1046 45 54 45C52.8954 45 52 45.8954 52 47H56ZM52 64C52 65.1046 52.8954 66 54 66C55.1046 66 56 65.1046 56 64H52ZM52 47V64H56V47H52Z" fill="#93B3FD"/>
<path d="M16 47C16 45.8954 15.1046 45 14 45C12.8954 45 12 45.8954 12 47H16ZM12 73C12 74.1046 12.8954 75 14 75C15.1046 75 16 74.1046 16 73H12ZM12 47L12 73H16V47H12Z" fill="#93B3FD"/>
<path d="M42 47C42 45.8954 41.1046 45 40 45C38.8954 45 38 45.8954 38 47H42ZM38 73C38 74.1046 38.8954 75 40 75C41.1046 75 42 74.1046 42 73H38ZM38 47V73H42V47H38Z" fill="#93B3FD"/>
<path d="M61 47C61 45.8954 60.1046 45 59 45C57.8954 45 57 45.8954 57 47H61ZM57 73C57 74.1046 57.8954 75 59 75C60.1046 75 61 74.1046 61 73H57ZM57 47V73H61V47H57Z" fill="#93B3FD"/>
<path d="M2 77V7C2 4.23858 4.23858 2 7 2H65C67.7614 2 70 4.23858 70 7V77C70 79.7614 67.7614 82 65 82H7C4.23858 82 2 79.7614 2 77Z" stroke="#93B3FD" stroke-width="4"/>
<path d="M44.8759 38H27C28.8351 32.9045 29.2231 31.3149 30.8733 29.5145C33.6805 26.452 38.6733 26.2702 41.2253 29.5484C44.3553 33.5692 45.3856 37.9531 44.8759 38Z" fill="#93B3FD"/>
<path d="M27 38L26.5296 37.8306C26.4744 37.9838 26.4973 38.1543 26.5909 38.2875C26.6845 38.4207 26.8372 38.5 27 38.5V38ZM44.8759 38V38.5C44.8912 38.5 44.9065 38.4993 44.9217 38.4979L44.8759 38ZM41.2253 29.5484L41.6198 29.2413L41.6198 29.2413L41.2253 29.5484ZM30.8733 29.5145L31.2419 29.8524L31.2419 29.8524L30.8733 29.5145ZM27 38.5H44.8759V37.5H27V38.5ZM44.9217 38.4979C45.1678 38.4752 45.3185 38.3146 45.391 38.1832C45.4567 38.0641 45.4804 37.9376 45.4908 37.8428C45.5123 37.6462 45.4942 37.4051 45.4549 37.1491C45.3745 36.6261 45.1849 35.9148 44.8852 35.0931C44.2846 33.446 43.2207 31.2977 41.6198 29.2413L40.8307 29.8556C42.3599 31.8199 43.3762 33.874 43.9458 35.4357C44.2312 36.2184 44.3992 36.8632 44.4665 37.301C44.501 37.5255 44.5042 37.6659 44.4967 37.7338C44.4926 37.7712 44.4892 37.7476 44.5156 37.6999C44.5487 37.6398 44.6477 37.5189 44.8301 37.5021L44.9217 38.4979ZM30.5047 29.1767C28.7675 31.0719 28.3423 32.7972 26.5296 37.8306L27.4704 38.1694C29.3279 33.0119 29.6786 31.5578 31.2419 29.8524L30.5047 29.1767ZM41.6198 29.2413C38.8468 25.6792 33.4855 25.9248 30.5047 29.1767L31.2419 29.8524C33.8755 26.9792 38.4997 26.8613 40.8307 29.8556L41.6198 29.2413Z" fill="#93B3FD"/>
<circle cx="36" cy="19.5" r="4.5" fill="#93B3FD"/>
</svg>
