<svg width="50" height="76" viewBox="0 0 50 76" fill="none" xmlns="http://www.w3.org/2000/svg">
<rect x="13.5" y="30.5" width="22" height="44" rx="11" stroke="#93B3FD" stroke-width="3"/>
<circle cx="24.5" cy="41.5" r="4" stroke="#93B3FD" stroke-width="3"/>
<path d="M14.0658 24.0892C13.4177 24.6051 13.3105 25.5488 13.8264 26.197C14.3423 26.8451 15.286 26.9523 15.9342 26.4364L14.0658 24.0892ZM33.1107 26.4707C33.7778 26.9619 34.7168 26.8192 35.208 26.1521C35.6991 25.485 35.5564 24.546 34.8893 24.0548L33.1107 26.4707ZM15.9342 26.4364C19.5142 23.5868 22.0392 22.4712 24.4048 22.5006C26.8006 22.5303 29.3935 23.7341 33.1107 26.4707L34.8893 24.0548C31.0825 21.2522 27.8353 19.5429 24.442 19.5008C21.0186 19.4583 17.8057 21.1124 14.0658 24.0892L15.9342 26.4364Z" fill="#93B3FD"/>
<path d="M8.08034 17.815C7.42588 18.3229 7.30708 19.2652 7.815 19.9197C8.32291 20.5741 9.2652 20.6929 9.91966 20.185L8.08034 17.815ZM40.1253 20.2186C40.7983 20.7016 41.7355 20.5477 42.2186 19.8747C42.7016 19.2017 42.5477 18.2645 41.8747 17.7814L40.1253 20.2186ZM9.91966 20.185C16.0007 15.4657 20.494 13.4483 24.8529 13.501C29.2408 13.5541 33.8369 15.7047 40.1253 20.2186L41.8747 17.7814C35.4911 13.1992 30.2511 10.5661 24.8891 10.5012C19.4981 10.4361 14.3274 12.9667 8.08034 17.815L9.91966 20.185Z" fill="#93B3FD"/>
<path d="M1.08392 10.8122C0.427933 11.3182 0.306293 12.2601 0.81223 12.9161C1.31817 13.5721 2.26009 13.6937 2.91608 13.1878L1.08392 10.8122ZM47.1289 13.2211C47.8033 13.7022 48.74 13.5455 49.2211 12.8711C49.7022 12.1967 49.5455 11.26 48.8711 10.7789L47.1289 13.2211ZM2.91608 13.1878C11.6931 6.41839 18.3018 3.42346 24.7966 3.5015C31.3202 3.57988 38.0691 6.75836 47.1289 13.2211L48.8711 10.7789C39.7148 4.24724 32.3245 0.591729 24.8326 0.501712C17.3118 0.411349 10.0285 3.91362 1.08392 10.8122L2.91608 13.1878Z" fill="#93B3FD"/>
</svg>
