<svg width="122" height="161" viewBox="0 0 122 161" fill="none" xmlns="http://www.w3.org/2000/svg">
<path d="M5 5V0H0V5H5ZM5 155.5H0V160.5H5V155.5ZM91.5 160.5C94.2614 160.5 96.5 158.261 96.5 155.5C96.5 152.739 94.2614 150.5 91.5 150.5V160.5ZM91.5 10C94.2614 10 96.5 7.76142 96.5 5C96.5 2.23858 94.2614 0 91.5 0V10ZM44 79C41.2386 79 39 81.2386 39 84C39 86.7614 41.2386 89 44 89V79ZM115.5 84L119.642 86.8004L121.577 83.9387L119.585 81.1166L115.5 84ZM95.5848 47.1166C93.9924 44.8606 90.8726 44.3227 88.6166 45.9152C86.3606 47.5076 85.8227 50.6274 87.4152 52.8834L95.5848 47.1166ZM87.3578 116.7C85.8112 118.987 86.4119 122.096 88.6996 123.642C90.9873 125.189 94.0956 124.588 95.6422 122.3L87.3578 116.7ZM0 5V155.5H10V5H0ZM5 160.5H91.5V150.5H5V160.5ZM5 10H91.5V0H5V10ZM44 89H115.5V79H44V89ZM119.585 81.1166L95.5848 47.1166L87.4152 52.8834L111.415 86.8834L119.585 81.1166ZM111.358 81.1996L87.3578 116.7L95.6422 122.3L119.642 86.8004L111.358 81.1996Z" fill="#B0CDFC"/>
</svg>
