<svg width="37" height="36" viewBox="0 0 37 36" fill="none" xmlns="http://www.w3.org/2000/svg">
<path d="M1.63046 30.9085C0.654147 31.8848 0.475855 33.6127 1.23223 34.7678C1.98861 35.9229 3.39323 36.0678 4.36954 35.0915L1.63046 30.9085ZM34.3695 5.09152C35.3458 4.11521 35.5241 2.38736 34.7677 1.23226C34.0114 0.0771608 32.6068 -0.0677775 31.6304 0.908533L34.3695 5.09152ZM4.36954 35.0915L34.3695 5.09152L31.6304 0.908533L1.63046 30.9085L4.36954 35.0915Z" fill="white"/>
<path d="M5.19101 0.908505C4.2147 -0.0678059 2.81008 0.0771324 2.0537 1.23223C1.29733 2.38733 1.47562 4.11518 2.45193 5.0915L5.19101 0.908505ZM32.4519 35.0915C33.4282 36.0678 34.8328 35.9228 35.5892 34.7677C36.3456 33.6126 36.1673 31.8848 35.191 30.9085L32.4519 35.0915ZM2.45193 5.0915L32.4519 35.0915L35.191 30.9085L5.19101 0.908505L2.45193 5.0915Z" fill="white"/>
</svg>
