<svg width="97" height="72" viewBox="0 0 97 72" fill="none" xmlns="http://www.w3.org/2000/svg">
<path d="M1.5 15.5C1.5 16.6046 2.39543 17.5 3.5 17.5C4.60457 17.5 5.5 16.6046 5.5 15.5H1.5ZM16.5 4C17.6046 4 18.5 3.10457 18.5 2C18.5 0.895431 17.6046 0 16.5 0V4ZM5.5 15.5V7H1.5V15.5H5.5ZM8.5 4H16.5V0H8.5V4ZM5.5 7C5.5 5.34315 6.84315 4 8.5 4V0C4.63401 0 1.5 3.13401 1.5 7H5.5Z" fill="#93B3FD"/>
<path d="M17.5 72C18.6046 72 19.5 71.1046 19.5 70C19.5 68.8954 18.6046 68 17.5 68V72ZM6 57C6 55.8954 5.10457 55 4 55C2.89543 55 2 55.8954 2 57H6ZM17.5 68H9V72H17.5V68ZM6 65L6 57H2L2 65H6ZM9 68C7.34315 68 6 66.6569 6 65H2C2 68.866 5.13401 72 9 72V68Z" fill="#93B3FD"/>
<path d="M81 0C79.8954 0 79 0.895431 79 2C79 3.10457 79.8954 4 81 4V0ZM92.5 15C92.5 16.1046 93.3954 17 94.5 17C95.6046 17 96.5 16.1046 96.5 15H92.5ZM81 4L89.5 4V0L81 0V4ZM92.5 7V15H96.5V7H92.5ZM89.5 4C91.1569 4 92.5 5.34315 92.5 7H96.5C96.5 3.13401 93.366 0 89.5 0V4Z" fill="#93B3FD"/>
<path d="M96 56C96 54.8954 95.1046 54 94 54C92.8954 54 92 54.8954 92 56H96ZM81 67.5C79.8954 67.5 79 68.3954 79 69.5C79 70.6046 79.8954 71.5 81 71.5V67.5ZM92 56V64.5H96V56H92ZM89 67.5H81V71.5H89V67.5ZM92 64.5C92 66.1569 90.6569 67.5 89 67.5V71.5C92.866 71.5 96 68.366 96 64.5H92Z" fill="#93B3FD"/>
<path d="M29 11C29 9.89543 28.1046 9 27 9C25.8954 9 25 9.89543 25 11H29ZM25 45C25 46.1046 25.8954 47 27 47C28.1046 47 29 46.1046 29 45H25ZM25 11L25 45H29L29 11H25Z" fill="#93B3FD"/>
<path d="M29 52C29 50.8954 28.1046 50 27 50C25.8954 50 25 50.8954 25 52H29ZM25 58C25 59.1046 25.8954 60 27 60C28.1046 60 29 59.1046 29 58H25ZM25 52V58H29V52H25Z" fill="#93B3FD"/>
<path d="M37 52C37 50.8954 36.1046 50 35 50C33.8954 50 33 50.8954 33 52H37ZM33 58C33 59.1046 33.8954 60 35 60C36.1046 60 37 59.1046 37 58H33ZM33 52V58H37V52H33Z" fill="#93B3FD"/>
<path d="M45 52C45 50.8954 44.1046 50 43 50C41.8954 50 41 50.8954 41 52H45ZM41 58C41 59.1046 41.8954 60 43 60C44.1046 60 45 59.1046 45 58H41ZM41 52V58H45V52H41Z" fill="#93B3FD"/>
<path d="M65 52C65 50.8954 64.1046 50 63 50C61.8954 50 61 50.8954 61 52H65ZM61 58C61 59.1046 61.8954 60 63 60C64.1046 60 65 59.1046 65 58H61ZM61 52V58H65V52H61Z" fill="#93B3FD"/>
<path d="M77 52C77 50.8954 76.1046 50 75 50C73.8954 50 73 50.8954 73 52H77ZM73 58C73 59.1046 73.8954 60 75 60C76.1046 60 77 59.1046 77 58H73ZM73 52V58H77V52H73Z" fill="#93B3FD"/>
<path d="M37 11C37 9.89543 36.1046 9 35 9C33.8954 9 33 9.89543 33 11H37ZM33 45C33 46.1046 33.8954 47 35 47C36.1046 47 37 46.1046 37 45H33ZM33 11V45H37V11H33Z" fill="#93B3FD"/>
<path d="M45 11C45 9.89543 44.1046 9 43 9C41.8954 9 41 9.89543 41 11H45ZM41 45C41 46.1046 41.8954 47 43 47C44.1046 47 45 46.1046 45 45H41ZM41 11V45H45V11H41Z" fill="#93B3FD"/>
<path d="M65 11C65 9.89543 64.1046 9 63 9C61.8954 9 61 9.89543 61 11H65ZM61 45C61 46.1046 61.8954 47 63 47C64.1046 47 65 46.1046 65 45H61ZM61 11V45H65V11H61Z" fill="#93B3FD"/>
<path d="M77 11C77 9.89543 76.1046 9 75 9C73.8954 9 73 9.89543 73 11H77ZM73 45C73 46.1046 73.8954 47 75 47C76.1046 47 77 46.1046 77 45H73ZM73 11V45H77V11H73Z" fill="#93B3FD"/>
<path d="M18 11C18 9.89543 17.1046 9 16 9C14.8954 9 14 9.89543 14 11H18ZM14 58C14 59.1046 14.8954 60 16 60C17.1046 60 18 59.1046 18 58H14ZM14 11L14 58H18L18 11H14Z" fill="#93B3FD"/>
<path d="M57 11C57 9.89543 56.1046 9 55 9C53.8954 9 53 9.89543 53 11H57ZM53 58C53 59.1046 53.8954 60 55 60C56.1046 60 57 59.1046 57 58H53ZM53 11V58H57V11H53Z" fill="#93B3FD"/>
<path d="M85 11C85 9.89543 84.1046 9 83 9C81.8954 9 81 9.89543 81 11H85ZM81 58C81 59.1046 81.8954 60 83 60C84.1046 60 85 59.1046 85 58H81ZM81 11V58H85V11H81Z" fill="#93B3FD"/>
<path d="M2.99725 31.5C1.89268 31.5 0.997253 32.3954 0.997253 33.5C0.997253 34.6046 1.89268 35.5 2.99725 35.5V31.5ZM94.0027 35.5C95.1073 35.5 96.0027 34.6046 96.0027 33.5C96.0027 32.3954 95.1073 31.5 94.0027 31.5V35.5ZM2.99725 35.5H94.0027V31.5H2.99725V35.5Z" fill="#93B3FD"/>
</svg>
