<svg width="39" height="38" viewBox="0 0 39 38" fill="none" xmlns="http://www.w3.org/2000/svg">
<path d="M4.9716 14.4386C4.12267 13.3498 2.55175 13.1552 1.46286 14.0042C0.373979 14.8531 0.179462 16.424 1.0284 17.5129L4.9716 14.4386ZM16.2727 33L14.3011 34.5371L16.4454 37.2875L18.3616 34.3736L16.2727 33ZM38.0888 4.37358C38.8475 3.21994 38.5272 1.66976 37.3736 0.911151C36.2199 0.152546 34.6698 0.472785 33.9112 1.62642L38.0888 4.37358ZM1.0284 17.5129L14.3011 34.5371L18.2443 31.4629L4.9716 14.4386L1.0284 17.5129ZM18.3616 34.3736L38.0888 4.37358L33.9112 1.62642L14.1839 31.6264L18.3616 34.3736Z" fill="#18E0AF"/>
</svg>
