<svg width="92" height="93" viewBox="0 0 92 93" fill="none" xmlns="http://www.w3.org/2000/svg">
<path d="M3.52971 79.8189L42.1302 40.5943C42.5812 40.1361 43.1674 39.8348 43.8025 39.7349L53.6137 38.1922L52.2284 48.0268C52.1388 48.6635 51.847 49.2544 51.396 49.7127L12.7955 88.9373C12.4081 89.3309 11.775 89.336 11.3813 88.9486L3.54105 81.2331C3.14741 80.8457 3.14233 80.2125 3.52971 79.8189Z" stroke="#93B3FD" stroke-width="4"/>
<path d="M86.4001 7.01403C86.9811 6.42357 86.9735 5.47385 86.3831 4.89278C85.7926 4.31171 84.8429 4.31933 84.2618 4.90979L86.4001 7.01403ZM84.2618 4.90979L52.421 37.2654L54.5593 39.3696L86.4001 7.01403L84.2618 4.90979Z" fill="#93B3FD"/>
<path d="M34.5 47.5C34.9 48.7 41.3333 55 44.5 58" stroke="#93B3FD" stroke-width="3"/>
<path d="M10.5 70.5C10.9 71.7 17.3333 78 20.5 81" stroke="#93B3FD" stroke-width="3"/>
</svg>
